# xmcd CD database file
#
# Track frame offsets:
#	187
#	14687
#	30687
#	42637
#	55067
#	69880
#	83070
#	98570
#	110835
#	124702
#	138375
#	151780
#	165040
#	179055
#	194230
#	207537
#	220417
#	232292
#	245790
#	256882
#	270570
#
# Disc length: 3921 seconds
#
# Revision: 0
# Processed by: cddbd v1.5.2PL0 Copyright (c) Steve Scherf et al.
# Submitted via: CDex 1.70beta1
#
DISCID=3a0f4f15
DTITLE=THE LEGACY OF SWING SESSIONS VOL.1 - THE LEGACY OF SWING SESSIONS VOL.1
DYEAR=1900
DGENRE=Jazz
TTITLE0=BLUE MOON
TTITLE1=PLANTATION MOODS
TTITLE2=DOWN'T UNCLE BILL'S
TTITLE3=TROUBLED
TTITLE4=NOTHIN' BUT THE BLUES
TTITLE5=NEW ORLEANS TWIST
TTITLE6=SQUAREFACE
TTITLE7=DIZZY GLIDE
TTITLE8=I HOPE GABRIEL LIKES MY MUSIC
TTITLE9=MUTINY IN THE PARLOR
TTITLE10=I'M GONNA CLAP MY HANDS
TTITLE11=SWING IS HERE
TTITLE12=OLD-FASHIONED LOVE
TTITLE13=APOLOGIES
TTITLE14=SENDIN' THE VIPERS
TTITLE15=35TH AND CALUMET
TTITLE16=THE PANIC IS ON
TTITLE17=MUTINY IN THE PARLOR
TTITLE18=LOST
TTITLE19=A MELODY FROM THE SKY
TTITLE20=I'SE A MUGGIN'-PART
EXTD=
EXTT0=
EXTT1=
EXTT2=
EXTT3=
EXTT4=
EXTT5=
EXTT6=
EXTT7=
EXTT8=
EXTT9=
EXTT10=
EXTT11=
EXTT12=
EXTT13=
EXTT14=
EXTT15=
EXTT16=
EXTT17=
EXTT18=
EXTT19=
EXTT20=
PLAYORDER=
